PathFileType	4	(X/Y/Z)	/Users/rkoike/Documents/python/sports2d/webcam_20250611_152632/webcam_20250611_152632_px_person02.trc
DataRate	CameraRate	NumFrames	NumMarkers	Units	OrigDataRate	OrigDataStartFrame	OrigNumFrames
30	30	4	22	m	30	310	2485
Frame#	Time	Hip			RHip			RKnee			RAnkle			RBigToe			RSmallToe			RHeel			LHip			LKnee			LAnkle			LBigToe			LSmallToe			LHeel			Neck			Head			Nose			RShoulder			RElbow			RWrist			LShoulder			LElbow			LWrist			
		X1	Y1	Z1	X2	Y2	Z2	X3	Y3	Z3	X4	Y4	Z4	X5	Y5	Z5	X6	Y6	Z6	X7	Y7	Z7	X8	Y8	Z8	X9	Y9	Z9	X10	Y10	Z10	X11	Y11	Z11	X12	Y12	Z12	X13	Y13	Z13	X14	Y14	Z14	X15	Y15	Z15	X16	Y16	Z16	X17	Y17	Z17	X18	Y18	Z18	X19	Y19	Z19	X20	Y20	Z20	X21	Y21	Z21	X22	Y22	Z22
310	10.337493290391839	729.1878079921456	475.22810928867165	0.0	877.7725578044235	507.09034554422976	0.0	901.9641024059036	695.9862672709987	0.0	1210.8671875	682.1455078125001	0.0	1526.68017578125	391.271484375	0.0	1421.86572265625	69.384033203125	0.0	883.0827199004289	716.9078278839888	0.0	598.7976246881103	496.5650639760156	0.0	627.8243302069782	708.5217625814507	0.0	1210.837890625	683.4404296875	0.0	629.8403795030381	611.4361839161979	0.0			0.0	989.3256765408443	702.8535339434749	0.0	781.2274718582843	4.857015078300788	0.0	1290.556758008605	169.00818036332606	0.0	1221.21630859375	59.00561523437501	0.0	1044.376854075607	-10.439006091792836	0.0	1093.6999525356587	191.61656583764724	0.0	1065.013769123323	519.3054907571308	0.0	510.75734028912376	-2.081173236625576	0.0	470.91188059735083	241.65868152058582	0.0	538.3583222398942	500.34223794310685	0.0
311	10.370840042941492	728.477430646157	471.983636155869	0.0	877.375377129823	507.8262737345821	0.0	896.9327397080475	697.1941286807169	0.0	1210.8671875	682.1455078125001	0.0	1526.68017578125	391.271484375	0.0	1421.86572265625	69.384033203125	0.0	883.0827199004289	716.907827883989	0.0	600.0852942668635	495.9738533108902	0.0	623.0837657498375	711.6154698697942	0.0	1210.837890625	683.4404296875	0.0	629.8403795030381	611.4361839161979	0.0			0.0	989.3256765408443	702.8535339434749	0.0	779.6369149348266	7.107481085806245	0.0	1290.5350743972742	168.9422558834696	0.0	1221.21630859375	59.00561523437501	0.0	1046.9468636268796	-9.815173215087006	0.0	1093.2276420937642	193.03338888627684	0.0	1062.8171997539002	524.1275203749633	0.0	512.0153093561644	-3.37487105896896	0.0	470.19411583695825	237.43390443361614	0.0	539.5140560203827	497.8062164815722	0.0
312	10.404186795491142	731.3175833607376	472.37056727092744	0.0	877.7506235518489	507.4180507832887	0.0	891.943879163757	698.61060718137	0.0	1210.8671875	682.1455078125001	0.0	1526.68017578125	391.271484375	0.0	1421.86572265625	69.384033203125	0.0	883.0827199004289	716.907827883989	0.0	602.5673733005538	496.8606137692214	0.0	622.7028635985407	713.1742723105713	0.0	1210.837890625	683.4404296875	0.0	629.8403795030381	611.4361839161979	0.0			0.0	989.3256765408441	702.8535339434749	0.0	776.6063489971174	7.418344501318351	0.0	1290.5270136122062	168.91774875434078	0.0	1221.21630859375	59.00561523437501	0.0	1043.1922398715328	-8.407451745667402	0.0	1092.3259220960842	193.64812988911459	0.0	1061.160149136446	523.585177701292	0.0	510.36855113002935	-2.3820056263992373	0.0	469.4380356203676	228.04528747876532	0.0	538.5146869604278	496.92837034627246	0.0
313	10.437533548040793	732.1241774010763	473.2405724142138	0.0	877.0079025128306	504.9967090760424	0.0	889.6050661674924	699.4468610141614	0.0	1210.8671875	682.1455078125001	0.0	1526.68017578125	391.271484375	0.0	1421.86572265625	69.384033203125	0.0	883.0827199004289	716.9078278839888	0.0	603.0452062310101	495.34976177094336	0.0	628.9686945971011	712.5625173517652	0.0	1210.837890625	683.4404296875	0.0	629.8403795030381	611.4361839161979	0.0			0.0	989.3256765408441	702.8535339434749	0.0	778.122125805521	6.949712919892494	0.0	1290.5282809232463	168.92160174819196	0.0	1221.21630859375	59.00561523437501	0.0	1040.5600280927308	-9.058215090496699	0.0	1091.001984532289	191.0944906852632	0.0	1060.991624798222	519.9483896922512	0.0	511.06024426117443	-0.5102701300777378	0.0	469.5181728914981	218.75411459295935	0.0	537.6743792305773	495.1286308090473	0.0
